<svg id="Calque_1" data-name="Calque 1" xmlns="http://www.w3.org/2000/svg" viewBox="0 0 40 40"><defs><style>.cls-1{fill:#fff;}</style></defs><title>emergency_call</title><path class="cls-1" d="M7.31,5.72c.83,0,1.66,0,2.5,0,2.13.07,3.34,1.06,3.5,3.19a36.09,36.09,0,0,0,.95,5.84,3.21,3.21,0,0,1-.65,2.83c-.77,1-1.5,2-2.26,3a.47.47,0,0,0-.06.6,19.58,19.58,0,0,0,7.58,7.58.44.44,0,0,0,.57,0c.93-.71,1.89-1.39,2.79-2.13a3.72,3.72,0,0,1,3.42-.74c1.26.3,2.54.54,3.81.76.63.1,1.28,0,1.9.13a3.2,3.2,0,0,1,2.9,3.1c.06.63,0,1.27,0,1.9,0,1.22,0,2.43,0,3.65a5.9,5.9,0,0,1-.2,1.38,2.8,2.8,0,0,1-2.81,2.2A24.78,24.78,0,0,1,19.6,36.79,31.37,31.37,0,0,1,1.83,16.22a23,23,0,0,1-.82-7,3.2,3.2,0,0,1,3.37-3.5c1,0,2,0,2.93,0Z"/><path class="cls-1" d="M22.65,17.34c-.63,0-1.26,0-1.9,0a1.67,1.67,0,0,1-1.89-1.87c0-.52,0-1.05,0-1.57a1.66,1.66,0,0,1,1.79-1.77h2.06v-2A1.65,1.65,0,0,1,24.58,8.3H26a1.67,1.67,0,0,1,1.89,1.9v1.93h1.87c1.36,0,2,.61,2,2,0,.51,0,1,0,1.53a1.62,1.62,0,0,1-1.69,1.72c-.55,0-1.1,0-1.66,0h-.49v2a1.66,1.66,0,0,1-1.82,1.81H24.47a1.64,1.64,0,0,1-1.76-1.74c0-.65,0-1.3,0-1.95A.56.56,0,0,0,22.65,17.34Z"/><path class="cls-1" d="M24.94,2.38A12,12,0,0,0,15.66,7c-.05.06-.1.13-.16.19a.66.66,0,0,1-1,.13.65.65,0,0,1-.08-1,24.74,24.74,0,0,1,2.44-2.47,13.5,13.5,0,0,1,15.2-1A13,13,0,0,1,39,15.51a13.13,13.13,0,0,1-5.19,10,.77.77,0,0,1-.81.21c-.52-.21-.55-.81-.09-1.23a22,22,0,0,0,2.17-2.15,12.37,12.37,0,0,0-.39-15.62A12.22,12.22,0,0,0,24.94,2.38Z"/></svg>