<svg id="Calque_1" data-name="Calque 1" xmlns="http://www.w3.org/2000/svg" viewBox="0 0 358.99 103.96"><defs><style>.cls-1{fill:#fff;}.cls-2{fill:#c92c20;}.cls-3{fill:#2a3439;}.cls-4{fill:#fbfafa;}.cls-5{fill:#039117;}.cls-6{fill:none;}</style></defs><title>logo-01</title><path class="cls-1" d="M104.57,27c0-8.21,5.76-13.71,14-13.71,5.84,0,10.24,2.75,11.75,6.89l-5.84,3.28a5.91,5.91,0,0,0-6-4.07c-4.29,0-7.12,3.13-7.12,7.61s2.75,7.61,7.2,7.61a6.1,6.1,0,0,0,6.33-4.59l5.84,3c-1.85,5.09-6,7.69-11.91,7.69C110.37,40.76,104.57,35.25,104.57,27Z"/><path class="cls-1" d="M133.13,40.34V12.73h6.37V40.34Z"/><path class="cls-1" d="M143.08,15.85a3.56,3.56,0,1,1,3.58,3.43A3.45,3.45,0,0,1,143.08,15.85Zm.37,24.49v-19h6.37v19Z"/><path class="cls-1" d="M153.74,40.34v-19h6.06v2.41a6.69,6.69,0,0,1,5.77-2.82c4.14,0,6.59,2.71,6.59,8.29V40.34H166V30.47c0-3-1-4-2.82-4-2,0-3.24,1.66-3.24,4v9.83Z"/><path class="cls-1" d="M175.44,15.85A3.42,3.42,0,0,1,179,12.5a3.38,3.38,0,0,1,3.54,3.35A3.42,3.42,0,0,1,179,19.28,3.46,3.46,0,0,1,175.44,15.85Zm.38,24.49v-19h6.37v19Z"/><path class="cls-1" d="M198.84,47.72V38a6.12,6.12,0,0,1-5.39,2.72c-4.86,0-8.25-4-8.25-9.91s3.39-9.91,8.29-9.91a6,6,0,0,1,5.35,2.75V21.35H205V47.72ZM199,30.85c0-2.56-1.43-4.3-3.73-4.3s-3.84,1.74-3.84,4.3,1.58,4.29,3.84,4.29S199,33.41,199,30.85Z"/><path class="cls-1" d="M208.3,32.47V21.35h6.21v9.84c0,3,1.09,4,2.83,4,2.07,0,3.12-1.66,3.12-4V21.35h6.18v19h-6.06V38a6.6,6.6,0,0,1-5.65,2.79C210.75,40.76,208.3,38,208.3,32.47Z"/><path class="cls-1" d="M248.87,32.62H235.61c.3,1.66,1.77,2.94,4.56,2.94a5.87,5.87,0,0,0,4.48-1.81l4.22,3.46c-1.62,2.34-5.16,3.55-8.89,3.55-6.59,0-10.58-4.11-10.58-9.91,0-6,4.29-9.91,10.09-9.91,5.62,0,9.5,3.73,9.5,9.91A14.1,14.1,0,0,1,248.87,32.62Zm-13.22-3.88H243a3.71,3.71,0,0,0-7.31,0Z"/><path class="cls-1" d="M105.55,85.55V59h10.93c6,0,8.7,3.27,8.7,8.55,0,5.69-2.94,9-9,9h-4v9.08Zm6.59-14.76h3c2.33,0,3.31-1,3.31-3s-.75-3-3.24-3h-3Z"/><path class="cls-1" d="M128,85.55v-19h6.07v3a5.9,5.9,0,0,1,5.39-3.39,5.84,5.84,0,0,1,.86.08l-.15,6.55a11.48,11.48,0,0,0-2.11-.19c-2.67,0-3.88,1.89-3.88,4.34v8.62Z"/><path class="cls-1" d="M142.77,61.07a3.42,3.42,0,0,1,3.58-3.36,3.39,3.39,0,1,1,0,6.78A3.45,3.45,0,0,1,142.77,61.07Zm.38,24.48v-19h6.37v19Z"/><path class="cls-1" d="M152.53,76.06c0-6,4.49-9.91,10.25-9.91s10.21,4,10.21,9.91S168.62,86,162.78,86,152.53,82,152.53,76.06Zm14.24,0c0-2.56-1.54-4.29-4-4.29a4.3,4.3,0,0,0,0,8.59C165.23,80.36,166.77,78.62,166.77,76.06Z"/><path class="cls-1" d="M175.86,85.55v-19h6.06v3a5.92,5.92,0,0,1,5.39-3.39,5.71,5.71,0,0,1,.86.08L188,72.78a11.48,11.48,0,0,0-2.11-.19c-2.67,0-3.88,1.89-3.88,4.34v8.62Z"/><path class="cls-1" d="M190.59,61.07a3.56,3.56,0,1,1,3.58,3.42A3.41,3.41,0,0,1,190.59,61.07ZM191,85.55v-19h6.37v19Z"/><path class="cls-1" d="M213.53,85.22a10.53,10.53,0,0,1-4,.71c-5.09,0-6.71-2.6-6.71-7V72H200V66.57h2.82V62.16H209v4.41h4.33V72H209v5.69c0,2.15.68,3,2.07,3a5.2,5.2,0,0,0,2.23-.52Z"/><path class="cls-1" d="M234.86,77.83H221.59c.31,1.66,1.78,2.94,4.56,2.94A5.89,5.89,0,0,0,230.64,79l4.22,3.47C233.24,84.76,229.7,86,226,86c-6.59,0-10.58-4.11-10.58-9.91,0-6,4.29-9.91,10.1-9.91,5.61,0,9.49,3.73,9.49,9.91A16,16,0,0,1,234.86,77.83ZM221.63,74h7.31a3.71,3.71,0,0,0-7.31,0Zm10.51-16L228,64.57h-5.31l2.86-6.63Z"/><path class="cls-1" d="M244.16,81.34l4.9-4a5.65,5.65,0,0,0,5.2,2.9c1.92,0,3.35-.68,3.35-2.26s-1.13-2.07-4.1-2.79c-4.79-1.13-8.48-3.09-8.48-8.44,0-5.16,3.84-8.21,9.16-8.21,5,0,8.51,2.26,9.53,5l-5.09,3.51a4.49,4.49,0,0,0-4.14-2.83c-1.66,0-2.75.83-2.75,2.37,0,1.81,1.13,2.38,4.63,3.09,4.48.91,7.95,2.87,7.95,7.92,0,5.38-3.69,8.32-9.76,8.32C249.51,85.93,245.71,84.16,244.16,81.34Z"/><path class="cls-1" d="M266.24,76.06c0-6,3.39-9.91,8.29-9.91a6,6,0,0,1,5.35,2.75V66.57h6.18v19h-6.18V83.26A6.11,6.11,0,0,1,274.5,86C269.63,86,266.24,82,266.24,76.06Zm13.79,0c0-2.56-1.43-4.29-3.73-4.29s-3.84,1.73-3.84,4.29,1.58,4.3,3.84,4.3S280,78.62,280,76.06Z"/><path class="cls-1" d="M289.72,85.55v-19h6.06V69a6.7,6.7,0,0,1,5.77-2.83c4.14,0,6.59,2.72,6.59,8.29V85.55H302V75.68c0-3-1-4-2.82-4-2,0-3.24,1.66-3.24,4v9.83Z"/><path class="cls-1" d="M316.39,85.55V69.81h-5.84V63.93h5.84V59h6.33v5h5.84v5.88h-5.84V85.55Z"/><path class="cls-1" d="M349.81,77.83H336.55c.3,1.66,1.77,2.94,4.56,2.94A5.87,5.87,0,0,0,345.59,79l4.22,3.47c-1.62,2.33-5.16,3.54-8.89,3.54-6.59,0-10.59-4.11-10.59-9.91,0-6,4.3-9.91,10.1-9.91,5.61,0,9.49,3.73,9.49,9.91A13.88,13.88,0,0,1,349.81,77.83ZM336.59,74h7.31a3.71,3.71,0,0,0-7.31,0Zm10.51-16L343,64.57h-5.31l2.86-6.63Z"/><path class="cls-2" d="M75.18,39.55l9.28,0c1.59,0,2.17.59,2.17,2.18v20.7a1.67,1.67,0,0,1-1.84,1.87H66c-1.42,0-1.71.28-1.71,1.71V84.86a1.79,1.79,0,0,1-2,2H39.82a1.82,1.82,0,0,1-2-2q0-4.87,0-9.75c.78.27,1.54.55,2.33.78,1.12.34,1.72,0,2.07-1.12.19-.61.34-1.24.56-1.84,1.27-3.5,4.18-6.62,8.61-6.63a19,19,0,0,0,5.49-1c8.37-2.53,12.28-9.39,13-16.62a11,11,0,0,1,.94-4.33,6,6,0,0,1,3.32-2.86,9.4,9.4,0,0,0-.68,3.69c0,.19-.12.48.26.49s.29-.28.28-.48a26.18,26.18,0,0,1,.14-2.66c.06-.69.16-1.28,1-1.42a1.87,1.87,0,0,0,.94-.49l-.87-.44C74.92,40.07,74.83,39.84,75.18,39.55Z"/><path class="cls-2" d="M30,64.3q-6.28,0-12.56,0a1.76,1.76,0,0,1-1.88-2V41.51a1.83,1.83,0,0,1,2.07-2l14.09,0c.14.28.26.57.42.84s.32.6-.07,1a1.19,1.19,0,0,0-.24,1.19A10.46,10.46,0,0,0,35.22,48c.42.37,1.13.56.66,1.47-.27.51.27,1.07.62,1.54a14,14,0,0,0,6.85,4.75,24.26,24.26,0,0,0,4.36.94,26.4,26.4,0,0,1-3.93,3.09,17,17,0,0,1-7.94,2.38A40.83,40.83,0,0,1,30.66,62c-.87-.07-1.28.5-1.05,1.35C29.7,63.64,29.83,64,30,64.3Z"/><path class="cls-2" d="M37.82,30.51c0-3.68,0-7.35,0-11A1.85,1.85,0,0,1,40,17.38c7.34,0,14.69,0,22,0a2.11,2.11,0,0,1,2.35,2.34c-.06,5.52,0,11,0,16.56a10.12,10.12,0,0,0-3.43,3.66c-.42.68-.83,1.37-1.31,2A5.86,5.86,0,0,1,57.11,44c-.41.17-.63.14-.87-.33A20.48,20.48,0,0,0,52.89,39a22.87,22.87,0,0,0-8.28-5.11A29,29,0,0,1,37.82,30.51Z"/><path class="cls-3" d="M37.82,30.51a29,29,0,0,0,6.79,3.36A22.87,22.87,0,0,1,52.89,39a20.48,20.48,0,0,1,3.35,4.71c.24.47.46.5.87.33a5.86,5.86,0,0,0,2.46-2.08c.48-.65.89-1.34,1.31-2a10.12,10.12,0,0,1,3.43-3.66,6.05,6.05,0,0,1,5.71.23,6.43,6.43,0,0,1,2,2.09,2.3,2.3,0,0,0,2.21,1,.56.56,0,0,0,.57-.43c.23-.65.47-1.31.71-2h0c.65-1,1.14-2.21,1.89-3.2.2-.27,0-.42-.09-.59A5.56,5.56,0,0,1,78.72,27c.59,2.22-.21,4.16-1,6.11-.06.11-.16.23.08.22a13.27,13.27,0,0,0,2.39-3.07A6.75,6.75,0,0,1,85,26.53c-.25.6-.41,1.14-.69,1.69a7.2,7.2,0,0,1-4,3.3,1.89,1.89,0,0,0-.56.46,25.77,25.77,0,0,0-2.06,2.69c.43,0,.59-.27.79-.47a5.55,5.55,0,0,1,3.27-1.71,6.26,6.26,0,0,1,2.48-.08,7.74,7.74,0,0,1-4.65,2.4,2.64,2.64,0,0,1-.92.11c-1-.16-1.43.31-1.82,1.11a17,17,0,0,0-1.4,3A6.4,6.4,0,0,1,80.88,36a2.68,2.68,0,0,1-1,1.38,9.29,9.29,0,0,1-4,1.71c-.27.07-.64,0-.77.38a.33.33,0,0,0,0,.06h0c-.36.29-.27.52.09.71l.87.44a1.87,1.87,0,0,1-.94.49c-.86.14-1,.73-1,1.42a26.18,26.18,0,0,0-.14,2.66c0,.2.09.49-.28.48s-.25-.3-.26-.49a9.4,9.4,0,0,1,.68-3.69,6,6,0,0,0-3.32,2.86,11,11,0,0,0-.94,4.33c-.74,7.23-4.65,14.09-13,16.62a19,19,0,0,1-5.49,1c-4.43,0-7.34,3.13-8.61,6.63-.22.6-.37,1.23-.56,1.84-.35,1.12-1,1.46-2.07,1.12-.79-.23-1.55-.51-2.33-.78-.27-.36-.71-.5-1-.78a3.55,3.55,0,0,1-1.35-2.11.56.56,0,0,0-.46-.52,5.28,5.28,0,0,1-3.41-5.43c0-.24,0-.32-.17-.44A4.73,4.73,0,0,1,30,64.3c-.12-.33-.25-.66-.34-1-.23-.85.18-1.42,1.05-1.35a40.83,40.83,0,0,0,5.18.24,17,17,0,0,0,7.94-2.38,26.4,26.4,0,0,0,3.93-3.09,24.26,24.26,0,0,1-4.36-.94A14,14,0,0,1,36.5,51c-.35-.47-.89-1-.62-1.54.47-.91-.24-1.1-.66-1.47a10.46,10.46,0,0,1-3.44-5.58A1.19,1.19,0,0,1,32,41.25c.39-.35.27-.61.07-1s-.28-.56-.42-.84a13.08,13.08,0,0,1-1.11-4.26,4.56,4.56,0,0,1,.05-1.33c.07-.36.24-.81.56-.84,1-.09.53-.7.45-1.13A14.3,14.3,0,0,1,32,25.27c.13-.44.3-.94.88-1s.82.38,1,.83a19.49,19.49,0,0,0,2.38,4.1C36.64,29.83,37.33,30.05,37.82,30.51ZM38,44.36a.5.5,0,0,1-.46.07c-1.53-.28-2.78-1.22-4.32-1.91,1.5,4.53,5,6.34,9.12,7.37a19.48,19.48,0,0,1-5.19-.29l.47.64c2.35,3,5.58,4.39,9.23,5a33.74,33.74,0,0,0,5.09.34c-.15.11-.21.17-.28.21A27.23,27.23,0,0,0,47,59.11a17.93,17.93,0,0,1-13.86,4.35L31,63.25c1.28,2.5,3.76,2.42,5.93,3-.65.17-1.24.35-1.85.47s-1.27.2-1.9.27c-.21,0-.23.11-.26.29-.15,1,1.51,2.89,2.3,3.15.15.05.25,0,.38-.08A7.17,7.17,0,0,0,37.9,69.1c-.18.5-.32.89-.45,1.28-.82,2.45-.81,2.5,1.85,3.85l.18.08c1.41.54,1.4.54,1.83-.89a12,12,0,0,1,5.1-7c1.83-1.16,3.9-1.3,6-1.49a20,20,0,0,0,4.6-1,16.05,16.05,0,0,0,7.69-5.16,19.53,19.53,0,0,0,4.06-11.3A8.53,8.53,0,0,1,71,42.07a8.69,8.69,0,0,1,1.81-1.44,6.52,6.52,0,0,1-2.5-2.08c-2.27-2.6-5.6-1.4-7.16.4a24.82,24.82,0,0,0-1.83,2.86A7.24,7.24,0,0,1,58,45c-.41.17-.41.35-.2.74A4.71,4.71,0,0,0,60,47.77c.12,0,.3.06.33.26a3.86,3.86,0,0,1-2.44-.48A7.41,7.41,0,0,1,55.51,45c-.43-.65-.79-1.34-1.19-2a16.18,16.18,0,0,0-5.92-5.9,33.48,33.48,0,0,0-4.43-2A30.57,30.57,0,0,1,37.53,32,12.76,12.76,0,0,1,33,26.67c-.1.55-.21,1-.25,1.37a12.11,12.11,0,0,0,2.57,8.75c.16.19.4.41.17.63s-.39-.09-.56-.2a17.36,17.36,0,0,1-3.18-2.8C32.25,38.87,34.12,42.23,38,44.36ZM77.52,33.63l.09.09a1.19,1.19,0,0,0,.09-.15s-.06-.06-.09-.08Z"/><path class="cls-3" d="M75.54,37.21c-.39.1-.58-.06-.76-.42a6.78,6.78,0,0,1-.25-6.26,5.38,5.38,0,0,1,1.26,3,7.36,7.36,0,0,1-.24,3,.73.73,0,0,0,0,.69Z"/><path class="cls-4" d="M38,44.36c-3.84-2.13-5.71-5.49-6.18-9.94A17.36,17.36,0,0,0,35,37.22c.17.11.37.39.56.2s0-.44-.17-.63A12.11,12.11,0,0,1,32.78,28c0-.41.15-.82.25-1.37A12.76,12.76,0,0,0,37.53,32,30.57,30.57,0,0,0,44,35.09a33.48,33.48,0,0,1,4.43,2A16.18,16.18,0,0,1,54.32,43c.4.66.76,1.35,1.19,2a7.41,7.41,0,0,0,2.42,2.53,3.86,3.86,0,0,0,2.44.48c0-.2-.21-.21-.33-.26a4.71,4.71,0,0,1-2.29-2.07c-.21-.39-.21-.57.2-.74a7.24,7.24,0,0,0,3.32-3.15A24.82,24.82,0,0,1,63.1,39c1.56-1.8,4.89-3,7.16-.4a6.52,6.52,0,0,0,2.5,2.08A8.69,8.69,0,0,0,71,42.07a8.53,8.53,0,0,0-2.24,5.38,19.53,19.53,0,0,1-4.06,11.3A16.05,16.05,0,0,1,57,63.91a20,20,0,0,1-4.6,1c-2,.19-4.12.33-6,1.49a12,12,0,0,0-5.1,7c-.43,1.43-.42,1.43-1.83.89l-.18-.08c-2.66-1.35-2.67-1.4-1.85-3.85.13-.39.27-.78.45-1.28a7.17,7.17,0,0,1-2.33,1.28c-.13,0-.23.13-.38.08-.79-.26-2.45-2.15-2.3-3.15,0-.18,0-.26.26-.29.63-.07,1.27-.15,1.9-.27s1.2-.3,1.85-.47c-2.17-.61-4.65-.53-5.93-3l2.12.21A17.93,17.93,0,0,0,47,59.11a27.23,27.23,0,0,1,4.67-3.31c.07,0,.13-.1.28-.21a33.74,33.74,0,0,1-5.09-.34c-3.65-.62-6.88-2-9.23-5l-.47-.64a19.48,19.48,0,0,0,5.19.29c-4.14-1-7.62-2.84-9.12-7.37,1.54.69,2.79,1.63,4.32,1.91A.5.5,0,0,0,38,44.36Zm30-3.65a1,1,0,0,0,.88-.89.85.85,0,0,0-.88-.88.88.88,0,0,0-.87.89A.83.83,0,0,0,68,40.71Z"/><path class="cls-4" d="M77.52,33.63l.09-.14s.1.06.09.08a1.19,1.19,0,0,1-.09.15Z"/><path class="cls-4" d="M77.82,33.37c-.24,0-.14-.11-.08-.22Z"/><path class="cls-3" d="M68,40.71a.83.83,0,0,1-.87-.88.88.88,0,0,1,.87-.89.85.85,0,0,1,.88.88A1,1,0,0,1,68,40.71Z"/><path class="cls-2" d="M30,64.3q-6.28,0-12.56,0a1.76,1.76,0,0,1-1.88-2V41.51a1.83,1.83,0,0,1,2.07-2l14.09,0c.14.28.26.57.42.84s.32.6-.07,1a1.19,1.19,0,0,0-.24,1.19A10.46,10.46,0,0,0,35.22,48c.42.37,1.13.56.66,1.47-.27.51.27,1.07.62,1.54a14,14,0,0,0,6.85,4.75,24.26,24.26,0,0,0,4.36.94,26.4,26.4,0,0,1-3.93,3.09,17,17,0,0,1-7.94,2.38A40.83,40.83,0,0,1,30.66,62c-.87-.07-1.28.5-1.05,1.35C29.7,63.64,29.83,64,30,64.3Z"/><path class="cls-5" d="M75.54,37.21c-.39.1-.58-.06-.76-.42a6.78,6.78,0,0,1-.25-6.26,5.38,5.38,0,0,1,1.26,3,7.36,7.36,0,0,1-.24,3,.73.73,0,0,0,0,.69Z"/><path class="cls-4" d="M77.52,33.63l.09-.14s.1.06.09.08a1.19,1.19,0,0,1-.09.15Z"/><path class="cls-4" d="M77.82,33.37c-.24,0-.14-.11-.08-.22Z"/><path class="cls-6" d="M85.87,27.68l-.11.19.12.12a.88.88,0,0,0,.12-.21S85.92,27.71,85.87,27.68Z"/><path class="cls-5" d="M89.42,25.1a9.43,9.43,0,0,0,5.19-4.33c.36-.72.58-1.43.9-2.22a8.87,8.87,0,0,0-6.23,4.95,17.32,17.32,0,0,1-3.12,4c-.32,0-.19-.15-.11-.29,1-2.56,2-5.1,1.29-8a7.26,7.26,0,0,0-1.82,8.37c.09.22.37.43.11.77-1,1.31-1.62,2.82-2.48,4.21l0,0c-.32.86-.63,1.71-.94,2.57a.71.71,0,0,1-.67.55l.85.4a.62.62,0,0,1,.29-.45s0,0,0,0a.21.21,0,0,1,0-.07c.17-.51.66-.41,1-.5a12.22,12.22,0,0,0,5.23-2.24A3.53,3.53,0,0,0,90.17,31,8.4,8.4,0,0,0,83,35a22.08,22.08,0,0,1,1.82-4c.52-1.05,1.15-1.67,2.4-1.46a3.41,3.41,0,0,0,1.21-.15c2.28-.49,4.46-1.18,6.09-3.15a8.49,8.49,0,0,0-3.26.11A7.35,7.35,0,0,0,87,28.61c-.26.27-.47.66-1,.62a30.27,30.27,0,0,1,2.7-3.52A2.23,2.23,0,0,1,89.42,25.1ZM85.88,28l-.12-.12.11-.19s.13.08.13.1A.88.88,0,0,1,85.88,28Z"/><path class="cls-6" d="M81.89,38.16l.72-.35A1.52,1.52,0,0,0,81.89,38.16Z"/><path class="cls-5" d="M80.5,43.12c0,.25-.15.63.34.64s.38-.37.37-.63a31.26,31.26,0,0,1,.19-3.49,2.12,2.12,0,0,1,.49-1.48l-.55.26A12.12,12.12,0,0,0,80.5,43.12Z"/></svg>