<svg id="Calque_1" data-name="Calque 1" xmlns="http://www.w3.org/2000/svg" viewBox="0 0 60 60"><defs><style>.cls-1{fill:#ed2807;}</style></defs><title>touth</title><path d="M48.14,27.81c-.3,1.45-.47,2.94-.91,4.34-1.67,5.35-3.42,10.68-5.15,16a4.28,4.28,0,0,1-3.53,3.15,4.16,4.16,0,0,1-4.27-1.69,5.55,5.55,0,0,1-.81-1.72c-.6-1.93-1.14-3.88-1.71-5.82-.31-1.05-.82-1.5-1.67-1.52s-1.42.45-1.74,1.54l-1.68,5.75A4.47,4.47,0,0,1,18,48c-1.74-5.41-3.55-10.81-5.2-16.25a13.13,13.13,0,0,1,2.34-12.48c3.51-4.45,9.2-4.44,12.85-.1,1.7,2,2.53,2,4.23,0,3.72-4.45,9.56-4.27,13.1.41A15,15,0,0,1,48.14,27.81ZM26.6,20.75l.11-.13c-.07-.1-.14-.21-.22-.31-2.78-3.32-7.07-3.4-9.81,0a11.45,11.45,0,0,0-2.1,11.15c1.67,5.4,3.45,10.77,5.2,16.15a2.61,2.61,0,0,0,5.07-.09c.6-2,1.17-4,1.77-6a3.52,3.52,0,0,1,6.86,0c.62,2.06,1.2,4.13,1.82,6.19a2.49,2.49,0,0,0,2.41,1.91,2.46,2.46,0,0,0,2.56-1.81C42.1,42.1,44,36.5,45.67,30.83a11,11,0,0,0-2.21-10.55A5.94,5.94,0,0,0,37.33,18a6.52,6.52,0,0,0-3.83,2.55A5.5,5.5,0,0,1,29,22.72a15,15,0,0,1-5.42-.94c-.59-.21-1-.53-.84-1.24s.69-.74,1.46-.5Z"/><path class="cls-1" d="M56.57,15.76c0-.95-.72-1.34-1.45-.93-1.76,1-3.51,2-5.25,3a.86.86,0,0,0-.41,1.29.88.88,0,0,0,1.32.31c1.76-1,3.51-2,5.24-3.05A2.35,2.35,0,0,0,56.57,15.76Z"/><path class="cls-1" d="M46.46,14.9a4,4,0,0,0,.8-.46c1.43-1.4,2.83-2.82,4.24-4.23.44-.44.57-1,.1-1.41s-1-.32-1.42.13l-2,2c-.76.76-1.55,1.49-2.26,2.29a1.34,1.34,0,0,0-.25,1C45.79,14.46,46.18,14.65,46.46,14.9Z"/><path class="cls-1" d="M56.57,15.76a2.35,2.35,0,0,1-.55.64c-1.73,1-3.48,2-5.24,3.05a.88.88,0,0,1-1.32-.31.86.86,0,0,1,.41-1.29c1.74-1,3.49-2,5.25-3C55.85,14.42,56.56,14.81,56.57,15.76Z"/><path class="cls-1" d="M46.46,14.9c-.28-.25-.67-.44-.74-.71a1.34,1.34,0,0,1,.25-1c.71-.8,1.5-1.53,2.26-2.29l2-2c.44-.45.94-.59,1.42-.13s.34,1-.1,1.41c-1.41,1.41-2.81,2.83-4.24,4.23A4,4,0,0,1,46.46,14.9Z"/><path class="cls-1" d="M58.79,21.72l-.73.17-5.4,1.45c-.8.21-1.14.63-1,1.2s.65.79,1.43.59l5.48-1.48c.15,0,.36,0,.42-.15.19-.33.48-.71.43-1S59,21.93,58.79,21.72Z"/><path class="cls-1" d="M4.33,14.56c-.23.24-.59.45-.71.75-.2.48.07.87.52,1.13l5.05,2.92c.56.32,1.06.4,1.47-.19s.15-1-.57-1.42c-1.63-1-3.27-1.9-4.91-2.84C5,14.79,4.71,14.72,4.33,14.56Z"/><path class="cls-1" d="M1.38,21.71c-.21.22-.6.46-.71.8-.2.59.18,1,.75,1.12,1.9.51,3.79,1,5.7,1.52.71.19,1.23-.07,1.34-.64s-.29-1-.87-1.15L3.08,22.15Z"/><path class="cls-1" d="M4.33,14.56c.38.16.63.23.85.35,1.64.94,3.28,1.88,4.91,2.84.72.42.92.92.57,1.42s-.91.51-1.47.19l-5-2.92c-.45-.26-.72-.65-.52-1.13C3.74,15,4.1,14.8,4.33,14.56Z"/><path class="cls-1" d="M1.38,21.71l1.7.44,4.51,1.21c.58.16,1,.48.87,1.15s-.63.83-1.34.64c-1.91-.49-3.8-1-5.7-1.52-.57-.16-.95-.53-.75-1.12C.78,22.17,1.17,21.93,1.38,21.71Z"/><path class="cls-1" d="M9.12,8.4c-.29.26-.7.44-.75.7a1.37,1.37,0,0,0,.27,1.08c1.35,1.43,2.76,2.8,4.15,4.2a1,1,0,0,0,1.42.15c.45-.38.41-.93-.12-1.47Q12,11,10,8.94A5.6,5.6,0,0,0,9.12,8.4Z"/><path class="cls-1" d="M9.12,8.4a5.6,5.6,0,0,1,.84.54Q12,11,14.09,13.06c.53.54.57,1.09.12,1.47a1,1,0,0,1-1.42-.15C11.4,13,10,11.61,8.64,10.18A1.37,1.37,0,0,1,8.37,9.1C8.42,8.84,8.83,8.66,9.12,8.4Z"/></svg>