<svg id="Calque_1" data-name="Calque 1" xmlns="http://www.w3.org/2000/svg" viewBox="0 0 358.99 103.96"><defs><style>.cls-1{fill:#c92c20;}.cls-2{fill:#2a3439;}.cls-3{fill:#fbfafa;}.cls-4{fill:#039117;}.cls-5{fill:#fff;}.cls-6{fill:#bcbbbb;}.cls-7{fill:none;}</style></defs><title>logo</title><path class="cls-1" d="M71.74,41.75l7.66,0c1.31,0,1.79.49,1.79,1.79V60.65a1.38,1.38,0,0,1-1.52,1.54H64.18c-1.17,0-1.41.23-1.41,1.41V79.14a1.47,1.47,0,0,1-1.63,1.68q-9.28,0-18.58,0a1.49,1.49,0,0,1-1.64-1.63q0-4,0-8c.64.21,1.27.45,1.92.64a1.18,1.18,0,0,0,1.71-.92c.15-.51.28-1,.46-1.53,1-2.88,3.45-5.46,7.11-5.46a15.65,15.65,0,0,0,4.53-.81C63.57,61,66.8,55.31,67.41,49.35a9,9,0,0,1,.78-3.58,4.94,4.94,0,0,1,2.73-2.35,7.89,7.89,0,0,0-.56,3c0,.16-.09.4.22.4s.24-.23.23-.39a20.13,20.13,0,0,1,.12-2.2c0-.57.13-1.06.84-1.17a1.51,1.51,0,0,0,.77-.4l-.71-.37C71.53,42.18,71.45,42,71.74,41.75Z"/><path class="cls-1" d="M34.41,62.18H24.05a1.46,1.46,0,0,1-1.55-1.61V43.37a1.51,1.51,0,0,1,1.71-1.68H35.84c.11.23.21.47.34.69s.27.5,0,.78a1,1,0,0,0-.2,1,8.58,8.58,0,0,0,2.83,4.6c.36.31.94.47.55,1.22-.22.42.22.89.51,1.27a11.56,11.56,0,0,0,5.65,3.92,20.71,20.71,0,0,0,3.6.78,20.91,20.91,0,0,1-3.24,2.54,13.91,13.91,0,0,1-6.55,2,32.28,32.28,0,0,1-4.28-.2c-.72,0-1.06.41-.86,1.12C34.21,61.63,34.32,61.9,34.41,62.18Z"/><path class="cls-1" d="M40.91,34.28c0-3,0-6.06,0-9.09a1.53,1.53,0,0,1,1.75-1.74c6.06,0,12.12,0,18.18,0a1.76,1.76,0,0,1,1.94,1.94c0,4.55,0,9.11,0,13.66a8.53,8.53,0,0,0-2.83,3c-.34.57-.69,1.13-1.08,1.67a4.85,4.85,0,0,1-2,1.72c-.34.13-.52.11-.72-.27a16.39,16.39,0,0,0-2.77-3.89,18.61,18.61,0,0,0-6.83-4.22A23.79,23.79,0,0,1,40.91,34.28Z"/><path class="cls-2" d="M40.91,34.28a23.79,23.79,0,0,0,5.6,2.78,18.61,18.61,0,0,1,6.83,4.22,16.39,16.39,0,0,1,2.77,3.89c.2.38.38.4.72.27a4.85,4.85,0,0,0,2-1.72c.39-.54.74-1.1,1.08-1.67a8.53,8.53,0,0,1,2.83-3,5,5,0,0,1,4.72.2A5.28,5.28,0,0,1,69.16,41a1.9,1.9,0,0,0,1.83.84.46.46,0,0,0,.46-.36c.2-.54.4-1.07.59-1.61h0c.54-.87.94-1.83,1.56-2.65.17-.21,0-.34-.07-.49a4.56,4.56,0,0,1,1.15-5.26c.48,1.83-.18,3.43-.82,5,0,.08-.12.18.07.18a11,11,0,0,0,2-2.53A5.59,5.59,0,0,1,79.81,31a14.89,14.89,0,0,1-.57,1.39A5.87,5.87,0,0,1,76,35.12a1.38,1.38,0,0,0-.45.39,18.19,18.19,0,0,0-1.7,2.21c.35,0,.48-.22.64-.39a4.7,4.7,0,0,1,2.7-1.41,5.42,5.42,0,0,1,2-.07,6.3,6.3,0,0,1-3.83,2,2,2,0,0,1-.76.1c-.79-.13-1.19.26-1.51.92A13.67,13.67,0,0,0,72,41.36a5.33,5.33,0,0,1,4.49-2.54A2.31,2.31,0,0,1,75.64,40a7.92,7.92,0,0,1-3.29,1.41c-.23,0-.53,0-.64.31a.17.17,0,0,0,0,.05h0c-.3.24-.22.43.08.58l.71.37a1.51,1.51,0,0,1-.77.4c-.71.11-.8.6-.84,1.17a20.13,20.13,0,0,0-.12,2.2c0,.16.07.4-.23.39s-.2-.24-.22-.4a7.89,7.89,0,0,1,.56-3,4.94,4.94,0,0,0-2.73,2.35,9,9,0,0,0-.78,3.58c-.61,6-3.84,11.62-10.74,13.71a15.65,15.65,0,0,1-4.53.81c-3.66,0-6.06,2.58-7.11,5.46-.18.5-.31,1-.46,1.53a1.18,1.18,0,0,1-1.71.92c-.65-.19-1.28-.43-1.92-.64-.22-.31-.59-.41-.87-.65A3,3,0,0,1,39,68.75a.45.45,0,0,0-.37-.43,4.36,4.36,0,0,1-2.82-4.48c0-.19,0-.27-.14-.37a4,4,0,0,1-1.22-1.29c-.09-.28-.2-.55-.27-.83-.2-.71.14-1.17.86-1.12a32.28,32.28,0,0,0,4.28.2,13.91,13.91,0,0,0,6.55-2,20.91,20.91,0,0,0,3.24-2.54,20.71,20.71,0,0,1-3.6-.78,11.56,11.56,0,0,1-5.65-3.92c-.29-.38-.73-.85-.51-1.27.39-.75-.19-.91-.55-1.22a8.58,8.58,0,0,1-2.83-4.6,1,1,0,0,1,.2-1c.32-.28.22-.5,0-.78s-.23-.46-.34-.69a11,11,0,0,1-.92-3.52,4.06,4.06,0,0,1,0-1.1c.06-.29.2-.67.46-.69.82-.08.44-.58.38-.93A11.68,11.68,0,0,1,36.1,30c.11-.36.25-.77.72-.79s.68.31.83.69a15.2,15.2,0,0,0,2,3.38C39.94,33.72,40.5,33.91,40.91,34.28ZM41,45.72a.4.4,0,0,1-.39.05,16.48,16.48,0,0,1-3.56-1.57c1.24,3.74,4.11,5.23,7.53,6.08A16,16,0,0,1,40.33,50l.39.53a11.57,11.57,0,0,0,7.61,4.13,27.35,27.35,0,0,0,4.2.28,1.49,1.49,0,0,1-.23.18,22.17,22.17,0,0,0-3.85,2.73A14.81,14.81,0,0,1,37,61.48l-1.75-.18c1.06,2.07,3.1,2,4.89,2.51-.54.14-1,.28-1.52.38s-1.05.17-1.58.23c-.17,0-.18.09-.21.24-.12.83,1.25,2.38,1.9,2.6.12,0,.21,0,.31-.07A6,6,0,0,0,41,66.13c-.15.42-.27.74-.38,1.06-.67,2-.67,2.06,1.53,3.18l.15.06c1.16.45,1.16.45,1.51-.73A9.91,9.91,0,0,1,48,63.89a10.57,10.57,0,0,1,4.91-1.23,16.4,16.4,0,0,0,3.8-.81,13.2,13.2,0,0,0,6.34-4.25,16.09,16.09,0,0,0,3.35-9.33,7.09,7.09,0,0,1,1.85-4.44,7.35,7.35,0,0,1,1.49-1.19,5.55,5.55,0,0,1-2.06-1.71c-1.87-2.15-4.62-1.16-5.91.32a19.86,19.86,0,0,0-1.51,2.37,6,6,0,0,1-2.73,2.59c-.34.14-.35.29-.17.62a3.82,3.82,0,0,0,1.89,1.7c.1,0,.25,0,.27.21a3.13,3.13,0,0,1-2-.39,6,6,0,0,1-2-2.09c-.35-.53-.65-1.1-1-1.65a13.36,13.36,0,0,0-4.89-4.87A26.74,26.74,0,0,0,46,38.07a25.56,25.56,0,0,1-5.32-2.56A10.57,10.57,0,0,1,37,31.12a10.94,10.94,0,0,0-.2,1.13,9.9,9.9,0,0,0,2.12,7.22c.12.16.32.34.14.52s-.32-.07-.47-.16a14.62,14.62,0,0,1-2.63-2.31C36.32,41.19,37.86,44,41,45.72Zm32.64-8.85.08.07a.33.33,0,0,0,.07-.13s0,0-.07-.07Z"/><path class="cls-2" d="M72,39.82c-.32.08-.48,0-.63-.35a5.6,5.6,0,0,1-.2-5.16,4.46,4.46,0,0,1,1,2.46,6.12,6.12,0,0,1-.2,2.48.62.62,0,0,0,0,.58Z"/><path class="cls-3" d="M41,45.72c-3.17-1.76-4.71-4.53-5.11-8.2a14.62,14.62,0,0,0,2.63,2.31c.15.09.31.31.47.16s0-.36-.14-.52a9.9,9.9,0,0,1-2.12-7.22,10.94,10.94,0,0,1,.2-1.13,10.57,10.57,0,0,0,3.71,4.39A25.56,25.56,0,0,0,46,38.07a26.74,26.74,0,0,1,3.65,1.67,13.36,13.36,0,0,1,4.89,4.87c.33.55.63,1.12,1,1.65a6,6,0,0,0,2,2.09,3.13,3.13,0,0,0,2,.39c0-.16-.17-.16-.27-.21a3.82,3.82,0,0,1-1.89-1.7c-.18-.33-.17-.48.17-.62a6,6,0,0,0,2.73-2.59,19.86,19.86,0,0,1,1.51-2.37c1.29-1.48,4-2.47,5.91-.32a5.55,5.55,0,0,0,2.06,1.71,7.35,7.35,0,0,0-1.49,1.19,7.09,7.09,0,0,0-1.85,4.44,16.09,16.09,0,0,1-3.35,9.33,13.2,13.2,0,0,1-6.34,4.25,16.4,16.4,0,0,1-3.8.81A10.57,10.57,0,0,0,48,63.89a9.91,9.91,0,0,0-4.21,5.81c-.35,1.18-.35,1.18-1.51.73l-.15-.06c-2.2-1.12-2.2-1.15-1.53-3.18.11-.32.23-.64.38-1.06a6,6,0,0,1-1.93,1.06c-.1,0-.19.1-.31.07-.65-.22-2-1.77-1.9-2.6,0-.15,0-.22.21-.24.53-.06,1.06-.13,1.58-.23s1-.24,1.52-.38c-1.79-.5-3.83-.44-4.89-2.51l1.75.18a14.81,14.81,0,0,0,11.44-3.59,22.17,22.17,0,0,1,3.85-2.73,1.49,1.49,0,0,0,.23-.18,27.35,27.35,0,0,1-4.2-.28,11.57,11.57,0,0,1-7.61-4.13L40.33,50a16,16,0,0,0,4.28.24c-3.42-.85-6.29-2.34-7.53-6.08a16.48,16.48,0,0,0,3.56,1.57A.4.4,0,0,0,41,45.72Zm24.76-3a.84.84,0,0,0,.72-.74.69.69,0,0,0-.72-.72.71.71,0,0,0-.72.73A.69.69,0,0,0,65.79,42.71Z"/><path class="cls-3" d="M73.67,36.87l.08-.13s.08.06.07.07a.33.33,0,0,1-.07.13Z"/><path class="cls-3" d="M73.92,36.65c-.19,0-.12-.1-.07-.18Z"/><path class="cls-2" d="M65.79,42.71a.69.69,0,0,1-.72-.73.71.71,0,0,1,.72-.73.69.69,0,0,1,.72.72A.84.84,0,0,1,65.79,42.71Z"/><path class="cls-1" d="M34.41,62.18H24.05a1.46,1.46,0,0,1-1.55-1.61V43.37a1.51,1.51,0,0,1,1.71-1.68H35.84c.11.23.21.47.34.69s.27.5,0,.78a1,1,0,0,0-.2,1,8.58,8.58,0,0,0,2.83,4.6c.36.31.94.47.55,1.22-.22.42.22.89.51,1.27a11.56,11.56,0,0,0,5.65,3.92,20.71,20.71,0,0,0,3.6.78,20.91,20.91,0,0,1-3.24,2.54,13.91,13.91,0,0,1-6.55,2,32.28,32.28,0,0,1-4.28-.2c-.72,0-1.06.41-.86,1.12C34.21,61.63,34.32,61.9,34.41,62.18Z"/><path class="cls-4" d="M72,39.82c-.32.08-.48,0-.63-.35a5.6,5.6,0,0,1-.2-5.16,4.46,4.46,0,0,1,1,2.46,6.12,6.12,0,0,1-.2,2.48.62.62,0,0,0,0,.58Z"/><path class="cls-3" d="M73.67,36.87l.08-.13s.08.06.07.07a.33.33,0,0,1-.07.13Z"/><path class="cls-3" d="M73.92,36.65c-.19,0-.12-.1-.07-.18Z"/><path class="cls-5" d="M109.57,27c0-8.21,5.76-13.71,14-13.71,5.84,0,10.24,2.75,11.75,6.89l-5.84,3.28a5.91,5.91,0,0,0-6-4.07c-4.29,0-7.12,3.13-7.12,7.61s2.75,7.61,7.2,7.61a6.1,6.1,0,0,0,6.33-4.59l5.84,3c-1.85,5.09-6,7.69-11.91,7.69C115.37,40.76,109.57,35.25,109.57,27Z"/><path class="cls-5" d="M138.13,40.34V12.73h6.37V40.34Z"/><path class="cls-5" d="M148.08,15.85a3.56,3.56,0,1,1,3.58,3.43A3.45,3.45,0,0,1,148.08,15.85Zm.37,24.49v-19h6.37v19Z"/><path class="cls-5" d="M158.74,40.34v-19h6.06v2.41a6.69,6.69,0,0,1,5.77-2.82c4.14,0,6.59,2.71,6.59,8.29V40.34H171V30.47c0-3-1-4-2.82-4-2,0-3.24,1.66-3.24,4v9.83Z"/><path class="cls-5" d="M180.44,15.85A3.42,3.42,0,0,1,184,12.5a3.38,3.38,0,0,1,3.54,3.35A3.42,3.42,0,0,1,184,19.28,3.46,3.46,0,0,1,180.44,15.85Zm.38,24.49v-19h6.37v19Z"/><path class="cls-5" d="M203.84,47.72V38a6.12,6.12,0,0,1-5.39,2.72c-4.86,0-8.25-4-8.25-9.91s3.39-9.91,8.29-9.91a6,6,0,0,1,5.35,2.75V21.35H210V47.72ZM204,30.85c0-2.56-1.43-4.3-3.73-4.3s-3.84,1.74-3.84,4.3,1.58,4.29,3.84,4.29S204,33.41,204,30.85Z"/><path class="cls-5" d="M213.3,32.47V21.35h6.21v9.84c0,3,1.09,4,2.83,4,2.07,0,3.12-1.66,3.12-4V21.35h6.18v19h-6.06V38a6.6,6.6,0,0,1-5.65,2.79C215.75,40.76,213.3,38,213.3,32.47Z"/><path class="cls-5" d="M253.87,32.62H240.61c.3,1.66,1.77,2.94,4.56,2.94a5.87,5.87,0,0,0,4.48-1.81l4.22,3.46c-1.62,2.34-5.16,3.55-8.89,3.55-6.59,0-10.58-4.11-10.58-9.91,0-6,4.29-9.91,10.09-9.91,5.62,0,9.5,3.73,9.5,9.91A14.1,14.1,0,0,1,253.87,32.62Zm-13.22-3.88H248a3.71,3.71,0,0,0-7.31,0Z"/><path class="cls-5" d="M110.55,85.55V59h10.93c6,0,8.7,3.27,8.7,8.55,0,5.69-2.94,9-9,9h-4v9.08Zm6.59-14.76h3c2.33,0,3.31-1,3.31-3s-.75-3-3.24-3h-3Z"/><path class="cls-5" d="M133,85.55v-19h6.07v3a5.9,5.9,0,0,1,5.39-3.39,5.84,5.84,0,0,1,.86.08l-.15,6.55a11.48,11.48,0,0,0-2.11-.19c-2.67,0-3.88,1.89-3.88,4.34v8.62Z"/><path class="cls-5" d="M147.77,61.07a3.42,3.42,0,0,1,3.58-3.36,3.39,3.39,0,1,1,0,6.78A3.45,3.45,0,0,1,147.77,61.07Zm.38,24.48v-19h6.37v19Z"/><path class="cls-5" d="M157.53,76.06c0-6,4.49-9.91,10.25-9.91s10.21,4,10.21,9.91S173.62,86,167.78,86,157.53,82,157.53,76.06Zm14.24,0c0-2.56-1.54-4.29-4-4.29a4.3,4.3,0,0,0,0,8.59C170.23,80.36,171.77,78.62,171.77,76.06Z"/><path class="cls-5" d="M180.86,85.55v-19h6.06v3a5.92,5.92,0,0,1,5.39-3.39,5.71,5.71,0,0,1,.86.08L193,72.78a11.48,11.48,0,0,0-2.11-.19c-2.67,0-3.88,1.89-3.88,4.34v8.62Z"/><path class="cls-5" d="M195.59,61.07a3.56,3.56,0,1,1,3.58,3.42A3.41,3.41,0,0,1,195.59,61.07ZM196,85.55v-19h6.37v19Z"/><path class="cls-5" d="M218.53,85.22a10.53,10.53,0,0,1-4,.71c-5.09,0-6.71-2.6-6.71-7V72H205V66.57h2.82V62.16H214v4.41h4.33V72H214v5.69c0,2.15.68,3,2.07,3a5.2,5.2,0,0,0,2.23-.52Z"/><path class="cls-5" d="M239.86,77.83H226.59c.31,1.66,1.78,2.94,4.56,2.94A5.89,5.89,0,0,0,235.64,79l4.22,3.47C238.24,84.76,234.7,86,231,86c-6.59,0-10.58-4.11-10.58-9.91,0-6,4.29-9.91,10.1-9.91,5.61,0,9.49,3.73,9.49,9.91A16,16,0,0,1,239.86,77.83ZM226.63,74h7.31a3.71,3.71,0,0,0-7.31,0Zm10.51-16L233,64.57h-5.31l2.86-6.63Z"/><path class="cls-5" d="M249.16,81.34l4.9-4a5.65,5.65,0,0,0,5.2,2.9c1.92,0,3.35-.68,3.35-2.26s-1.13-2.07-4.1-2.79c-4.79-1.13-8.48-3.09-8.48-8.44,0-5.16,3.84-8.21,9.16-8.21,5,0,8.51,2.26,9.53,5l-5.09,3.51a4.49,4.49,0,0,0-4.14-2.83c-1.66,0-2.75.83-2.75,2.37,0,1.81,1.13,2.38,4.63,3.09,4.48.91,7.95,2.87,7.95,7.92,0,5.38-3.69,8.32-9.76,8.32C254.51,85.93,250.71,84.16,249.16,81.34Z"/><path class="cls-5" d="M271.24,76.06c0-6,3.39-9.91,8.29-9.91a6,6,0,0,1,5.35,2.75V66.57h6.18v19h-6.18V83.26A6.11,6.11,0,0,1,279.5,86C274.63,86,271.24,82,271.24,76.06Zm13.79,0c0-2.56-1.43-4.29-3.73-4.29s-3.84,1.73-3.84,4.29,1.58,4.3,3.84,4.3S285,78.62,285,76.06Z"/><path class="cls-5" d="M294.72,85.55v-19h6.06V69a6.7,6.7,0,0,1,5.77-2.83c4.14,0,6.59,2.72,6.59,8.29V85.55H307V75.68c0-3-1-4-2.82-4-2,0-3.24,1.66-3.24,4v9.83Z"/><path class="cls-5" d="M321.39,85.55V69.81h-5.84V63.93h5.84V59h6.33v5h5.84v5.88h-5.84V85.55Z"/><path class="cls-5" d="M354.81,77.83H341.55c.3,1.66,1.77,2.94,4.56,2.94A5.87,5.87,0,0,0,350.59,79l4.22,3.47c-1.62,2.33-5.16,3.54-8.89,3.54-6.59,0-10.59-4.11-10.59-9.91,0-6,4.3-9.91,10.1-9.91,5.61,0,9.49,3.73,9.49,9.91A13.88,13.88,0,0,1,354.81,77.83ZM341.59,74h7.31a3.71,3.71,0,0,0-7.31,0Zm10.51-16L348,64.57h-5.31l2.86-6.63Z"/><path class="cls-6" d="M51.85,98A45.82,45.82,0,1,1,97.66,52.13,45.87,45.87,0,0,1,51.85,98Zm0-90.07A44.25,44.25,0,1,0,96.1,52.13,44.31,44.31,0,0,0,51.85,7.88Z"/><path class="cls-7" d="M80.57,32l-.1.16.1.1a.75.75,0,0,0,.1-.17S80.6,32,80.57,32Z"/><path class="cls-4" d="M83.49,29.82a7.75,7.75,0,0,0,4.29-3.57c.3-.59.47-1.18.74-1.83a7.35,7.35,0,0,0-5.14,4.08,14.22,14.22,0,0,1-2.58,3.33c-.26,0-.16-.13-.09-.24.83-2.11,1.7-4.21,1.06-6.61a6,6,0,0,0-1.5,6.9c.08.19.31.36.1.64C79.55,33.6,79,34.85,78.32,36v0c-.25.71-.52,1.41-.77,2.12a.6.6,0,0,1-.55.46l.7.32c0-.11.07-.23.24-.37h0a.33.33,0,0,1,0-.06c.14-.42.54-.34.84-.41a10.18,10.18,0,0,0,4.31-1.85,3,3,0,0,0,1.06-1.5A6.93,6.93,0,0,0,78.23,38a18,18,0,0,1,1.5-3.3c.43-.87,1-1.38,2-1.21a2.89,2.89,0,0,0,1-.12,8.35,8.35,0,0,0,5-2.6,7.13,7.13,0,0,0-2.69.09,6.11,6.11,0,0,0-3.54,1.85c-.21.22-.38.55-.85.52a23.75,23.75,0,0,1,2.23-2.91A1.8,1.8,0,0,1,83.49,29.82Zm-2.92,2.39-.1-.1.1-.16s.1.07.1.09A.75.75,0,0,1,80.57,32.21Z"/><path class="cls-7" d="M77.28,40.6l.6-.28A1.16,1.16,0,0,0,77.28,40.6Z"/><path class="cls-4" d="M76.13,44.69c0,.21-.12.53.29.53s.31-.3.3-.51c0-1,.08-1.93.15-2.89a1.81,1.81,0,0,1,.41-1.22l-.45.21A10,10,0,0,0,76.13,44.69Z"/></svg>